<svg width="110" height="90" viewBox="-10 -10 139 110" fill="none" xmlns="http://www.w3.org/2000/svg">
<path d="M111.726 0C114.59 0.890353 116.541 2.18237 117.573 3.87605C118.126 4.79987 118.519 6.08519 118.758 7.73201C117.953 10.3897 115.482 13.034 111.333 15.6649C108.031 17.8606 103.223 19.715 96.8965 21.248C94.2729 21.5827 92.8278 21.8839 92.5548 22.145C92.2485 22.145 91.7624 22.0714 91.0765 21.9509L85.3164 22.6471C85.0567 22.4864 84.8303 22.4061 84.6371 22.4061H84.2376C83.7049 22.3927 82.3464 24.3475 80.1556 28.2771C79.463 28.7256 78.4708 30.4394 77.1656 33.4317C76.7461 33.4251 76.24 34.389 75.634 36.3237C74.815 37.4551 73.6363 39.7579 72.0981 43.239C70.3068 45.9168 68.955 48.4472 68.0427 50.8304C67.5832 50.9376 66.9772 52.0154 66.2247 54.0571C64.9861 55.3291 63.7209 57.4244 62.4157 60.3432C61.8364 60.8653 61.5501 61.1666 61.5501 61.2402H61.2104C69.8673 62.7598 76.6928 64.0251 81.6805 65.0292L82.4796 64.8686L84.5173 65.3037L85.8291 65.0962C88.5927 65.297 90.031 65.4577 90.1442 65.5715C94.3128 65.6451 99.0075 65.1765 104.222 64.159C104.481 64.3531 104.708 64.4535 104.901 64.4602H104.788C105.407 63.6301 106.059 63.2217 106.745 63.2351L107.485 63.2485C107.471 63.8175 107.411 64.1054 107.298 64.1054H107.125C107.138 63.5297 107.744 63.2552 108.963 63.2753L110.275 63.2954C109.109 64.7615 107.651 65.7857 105.9 66.3681C104.028 67.2518 101.658 67.9681 98.8077 68.5304L97.7289 68.5103V68.912C97.0763 68.8986 96.6435 68.8182 96.4171 68.6576C93.2274 68.9454 91.1897 69.2534 90.3107 69.5814C89.1387 69.4475 88.1931 69.3739 87.4673 69.3605H87.2409C86.7481 69.3471 86.2353 69.394 85.7026 69.5011C82.8592 69.3002 80.6816 68.9923 79.1767 68.5839L78.4309 68.7982L73.33 67.794V67.9681L64.4268 66.0936L59.9452 65.2167L59.4857 65.4376C59.1861 65.2836 58.9197 65.2033 58.6933 65.1966H58.5202C58.367 65.1966 57.801 66.0602 56.8221 67.794C56.4026 68.0149 55.8365 68.7714 55.1307 70.05C54.9043 70.1237 52.5869 72.4466 48.1786 77.0189C45.4151 79.0272 43.151 80.4598 41.3863 81.3033C41.3397 81.9125 40.0878 82.7493 37.6439 83.8137C31.937 86.8797 27.4954 88.3792 24.3057 88.3257C24.2258 88.3993 22.6476 88.6403 19.5711 89.042C19.045 88.7675 18.3458 88.6202 17.4735 88.6068H17.3003C17.5267 88.6068 17.64 88.7608 17.6333 89.0688L16.5612 88.5935H16.1084C12.0929 88.5131 7.87771 86.478 3.46939 82.4681C2.02437 80.5736 0.865683 78.3577 0 75.8273L0.253046 74.2876L0.286341 72.3997C1.11873 70.4718 1.53159 69.6952 1.52493 70.0768H1.01218C2.11759 67.4191 3.1098 66.1003 3.98214 66.1137C3.99546 65.1966 5.3073 64.159 7.90435 62.9808C7.92433 61.682 11.407 60.2427 18.3325 58.6428C21.0361 58.0068 25.3845 57.5449 31.3843 57.2704L32.3499 57.4579L33.5485 57.3039C35.0668 57.4445 36.412 57.5248 37.584 57.5449L38.2099 57.5583L39.8014 57.6989L39.5684 57.8127C46.8334 58.8972 52.6002 59.8545 56.8754 60.6913C60.5112 56.4069 62.3425 53.6956 62.3625 52.5509C63.3347 51.3124 64.1205 49.6656 64.7264 47.6171C65.5855 46.372 67.8829 41.7997 71.6253 33.9004C72.8639 32.4343 74.4687 29.5423 76.4398 25.2311C78.018 23.8454 78.8171 22.8345 78.8237 22.1852V21.9576C73.6962 20.3442 70.2868 18.8715 68.6087 17.546C60.6311 11.8758 56.6689 7.3839 56.7289 4.06349L58.6733 3.58149C59.1661 3.58819 60.6378 5.08104 63.0883 8.06673C69.6608 13.8641 75.1612 17.0908 79.5895 17.7401L81.574 18.1752C87.3074 11.26 92.4349 6.66091 96.9498 4.37813C98.6812 3.11289 101.465 1.98154 105.314 0.97738L106.166 1.10457C106.286 0.76316 106.899 0.468607 108.004 0.220915L108.856 0.408357C110.568 0.32133 111.513 0.187443 111.706 0L111.726 0ZM4.44828 73.096C4.35505 78.2774 7.31169 81.9526 13.3049 84.1216L17.893 85.1726C18.0861 85.0655 18.3924 85.012 18.8053 85.0187C18.9185 85.0187 19.1249 85.0588 19.4312 85.1459C19.4312 85.1057 22.0017 84.6772 27.1358 83.8538C27.1358 83.74 28.3211 83.3384 30.6851 82.6555C35.5063 80.4531 39.2154 78.3845 41.8325 76.4498C44.9489 74.1403 48.3184 71.1881 51.9476 67.5932L52.9731 67.6133V68.0149L52.4004 68.0015V68.3429C52.3938 68.4568 52.2007 68.5103 51.8211 68.5036L51.8411 67.5329C53.1929 66.1472 54.0852 65.0359 54.518 64.2058V64.4334C50.5426 63.7171 46.647 63.1682 42.8247 62.8C42.8247 62.7264 42.9578 62.6862 43.2242 62.6929C43.1443 62.6929 42.9778 62.7464 42.7115 62.8536C39.2288 62.4854 36.8847 62.1239 35.6728 61.7557C35.5596 61.7891 35.4997 62.0168 35.4863 62.4385C34.3543 61.9632 33.695 61.7222 33.5086 61.7155C17.58 61.4343 8.1574 64.661 5.23405 71.3956L4.46826 73.096H4.44828ZM86.7015 18.6037C86.7015 18.5301 86.6282 18.4899 86.4751 18.4832L91.8889 17.9476C92.1486 18.1083 92.4349 18.1886 92.7346 18.1886C99.1673 16.8565 103.343 15.5912 105.26 14.4063C110.921 11.6817 113.764 9.61983 113.791 8.20731C114.017 8.20731 114.29 7.94623 114.603 7.41738L114.636 5.47601C114.417 4.94045 113.045 4.32457 110.514 3.62836H110.062C102.87 5.05426 97.2828 7.87259 93.3006 12.0767C88.9056 15.9259 86.7081 18.1016 86.7015 18.597V18.6037ZM110.634 62.3247C111.24 62.4117 111.533 62.8335 111.52 63.5966C110.754 64.1523 109.669 64.42 108.264 64.4C108.856 63.0008 109.649 62.3046 110.634 62.3247Z" fill="black"/>
</svg>
